PathFileType	4	(X/Y/Z)	TVC_26_BWA6_walk_RCNL2025.trc
DataRate	CameraRate	NumFrames	NumMarkers	Units	OrigDataRate	OrigDataStartFrame	OrigNumFrames
100	100	10	27	mm	100	368	588
Frame#	Time	R_Shoulder			L_Shoulder			C7			J_Notch			R_Elbow			L_Elbow			R_Wrist			L_Wrist			R_Asis			L_Asis			R_Psis			L_Psis			Sacral			Thoracic			Sternum			R_Thigh_Lateral			R_Knee_Lateral			R_Shank_Lateral			R_Ankle_Lateral			R_Heel			R_Toe			L_Thigh_Lateral			L_Knee_Lateral			L_Shank_Lateral			L_Ankle_Lateral			L_Heel			L_Toe		
		X1	Y1	Z1	X2	Y2	Z2	X3	Y3	Z3	X4	Y4	Z4	X5	Y5	Z5	X6	Y6	Z6	X7	Y7	Z7	X8	Y8	Z8	X9	Y9	Z9	X10	Y10	Z10	X11	Y11	Z11	X12	Y12	Z12	X13	Y13	Z13	X14	Y14	Z14	X15	Y15	Z15	X16	Y16	Z16	X17	Y17	Z17	X18	Y18	Z18	X19	Y19	Z19	X20	Y20	Z20	X21	Y21	Z21	X22	Y22	Z22	X23	Y23	Z23	X24	Y24	Z24	X25	Y25	Z25	X26	Y26	Z26	X27	Y27	Z27
368	3.67000000	860.467590	1365.149902	118.378708	863.617554	1369.727783	-202.524170	782.613953	1401.648804	-36.685375	934.676697	1312.802979	-31.415195	925.660706	1032.593750	240.567841	848.221497	1041.422485	-305.807312	1084.252869	887.544525	254.941208	966.867889	859.292297	-232.017868	938.079102	967.531189	147.475586	971.663025	957.124817	-144.046127	736.968018	956.223267	50.465923	757.491760	943.249634	-93.742943	747.229889	949.736450	-21.638510	736.287415	1119.368896	-39.600224	997.328979	1077.994995	-29.345984	882.795410	573.053101	178.239670	879.221313	449.265350	110.446175	827.923035	268.184326	150.585815	781.191895	73.097557	81.019646	734.702148	58.302505	30.763767	915.834229	45.123322	67.335381	1043.862671	609.231812	-203.168030	1063.353638	491.242004	-141.816315	1085.173096	288.501709	-194.140289	1096.443115	83.605476	-132.246399	1054.780029	56.110977	-77.300797	1232.917847	81.251228	-122.922806
369	3.68000000	865.377319	1364.341919	117.756538	868.228394	1369.050049	-203.169449	787.344299	1400.761719	-37.220066	939.566162	1312.224121	-32.141811	933.011658	1031.927979	238.971893	852.508606	1040.742920	-306.373901	1092.203674	887.486328	252.491531	970.455383	858.118317	-232.872955	943.691162	967.210571	146.831863	977.945435	956.862671	-144.402634	742.846558	955.123718	49.236229	763.688843	942.311951	-94.872482	753.267700	948.717834	-22.818127	741.750488	1118.315308	-40.278873	1002.847046	1077.729980	-30.240484	886.742798	572.519226	177.579147	881.484314	448.878601	109.956413	828.735046	268.264771	150.315445	781.444580	73.172417	80.967598	734.929321	58.543377	30.705666	916.028564	44.824860	67.606407	1049.724854	608.543396	-204.263107	1068.217041	490.307251	-141.992508	1090.515869	287.435822	-194.208054	1103.110474	82.815170	-132.085861	1061.353027	55.182545	-77.219505	1239.656006	80.682526	-122.486099
370	3.69000000	870.279968	1363.459839	117.085625	872.832275	1368.282593	-203.873917	792.090637	1399.785522	-37.806667	944.491821	1311.581421	-32.920143	940.317749	1031.194580	237.322845	856.864258	1039.965942	-307.007904	1099.966736	887.221741	250.056366	974.162720	856.897217	-233.949799	949.454041	966.873169	146.150848	984.265076	956.536194	-144.834167	748.875000	953.929810	47.972256	770.028564	941.283386	-96.022331	759.451782	947.606598	-24.025038	747.327454	1117.133057	-40.999611	1008.452515	1077.415283	-31.156174	890.938782	571.918579	176.885574	883.929260	448.452393	109.476875	829.639282	268.372833	150.073166	781.726562	73.276215	80.959312	735.176758	58.818218	30.688967	916.218262	44.474277	67.934174	1055.897949	607.731262	-205.143188	1073.257812	489.262848	-142.080154	1095.126099	285.994141	-194.105637	1108.153931	81.688683	-131.685013	1066.144165	54.090385	-76.995605	1244.725464	79.286690	-121.693489
371	3.70000000	875.192505	1362.514526	116.366203	877.436707	1367.435913	-204.638474	796.867493	1398.744629	-38.446247	949.464661	1310.886719	-33.748722	947.570312	1030.395874	235.624283	861.291748	1039.094604	-307.702423	1107.551086	886.763062	247.640259	978.026428	855.649292	-235.248924	955.380005	966.489197	145.417557	990.621826	956.134338	-145.365494	755.047119	952.651794	46.696289	776.486206	940.184204	-97.180702	765.766663	946.417999	-25.242207	753.011047	1115.848022	-41.759670	1014.154968	1077.051636	-32.089664	895.327942	571.263611	176.156540	886.575073	447.990936	109.008698	830.630981	268.518799	149.856400	782.023865	73.407288	80.992996	735.441162	59.129265	30.709753	916.405640	44.098938	68.305321	1062.145142	606.708557	-205.820328	1078.383911	488.095337	-142.114273	1099.094238	284.234589	-193.847717	1111.822998	80.288895	-131.089676	1069.452148	52.888287	-76.648048	1248.391235	77.136307	-120.578186
372	3.71000000	880.132812	1361.522827	115.599686	882.052612	1366.525879	-205.463928	801.691406	1397.668945	-39.140968	954.494995	1310.157593	-34.628990	954.760681	1029.535767	233.878632	865.798279	1038.140137	-308.449249	1114.960144	886.124176	245.245285	982.057281	854.377045	-236.768738	961.475830	966.027405	144.612152	997.021240	955.658142	-146.017807	761.347168	951.301025	45.432934	783.031189	939.034607	-98.337685	772.189178	945.167816	-26.452375	758.785767	1114.496460	-42.556686	1019.959961	1076.643066	-33.041916	899.877014	570.568787	175.388077	889.452637	447.492584	108.539223	831.724609	268.704315	149.648636	782.327209	73.564629	81.059036	735.723145	59.481045	30.757298	916.594910	43.728382	68.697273	1068.268311	605.430603	-206.321732	1083.499268	486.822021	-142.142090	1102.554688	282.270905	-193.464508	1114.433228	78.723274	-130.380417	1071.623901	51.681808	-76.226158	1250.970825	74.352539	-119.217163
373	3.72000000	885.118530	1360.507080	114.789810	886.692932	1365.572510	-206.350601	806.575806	1396.589722	-39.890274	959.590332	1309.415771	-35.564770	961.874939	1028.618652	232.086975	870.395020	1037.120972	-309.239410	1122.188721	885.318970	242.870163	986.255707	853.075287	-238.496971	967.742981	965.457947	143.711655	1003.469177	955.124207	-146.807617	767.751038	949.893311	44.206226	789.626892	937.863708	-99.485085	778.688965	943.878510	-27.639429	764.626465	1113.124634	-43.386818	1025.865723	1076.199219	-34.018589	904.587219	569.842590	174.567276	892.605591	446.950287	108.040070	832.963013	268.920197	149.419479	782.635620	73.750702	81.139610	736.027039	59.879395	30.814182	916.790039	43.388741	69.082375	1074.143799	603.923340	-206.680649	1088.533936	485.508148	-142.215683	1105.695679	280.270111	-193.006134	1116.345947	77.135818	-129.661957	1073.031494	50.605988	-75.804405	1252.817505	71.103004	-117.720589
374	3.73000000	890.170288	1359.495850	113.942604	891.370850	1364.599976	-207.296051	811.528870	1395.536621	-40.688599	964.753723	1308.685059	-36.560196	968.892822	1027.652100	230.248856	875.097412	1036.062256	-310.063171	1129.223206	884.360840	240.509361	990.636810	851.750916	-240.401299	974.177185	964.754883	142.691772	1009.965088	954.566040	-147.743744	774.228394	948.450439	43.037609	796.229614	936.717773	-100.615715	785.229004	942.584106	-28.789053	770.501465	1111.785645	-44.242016	1031.861328	1075.736450	-35.029171	909.495300	569.081970	173.671753	896.086365	446.352539	107.470764	834.414734	269.147583	149.129242	782.956543	73.972687	81.209831	736.359985	60.330788	30.857016	916.992920	43.096455	69.433495	1079.732422	602.296204	-206.927567	1093.474121	484.270874	-142.381744	1108.761230	278.435364	-192.533798	1117.920654	75.682762	-129.038483	1074.030884	49.802120	-75.463608	1254.285522	67.593903	-116.212311
375	3.74000000	895.314636	1358.526367	113.065231	896.097961	1363.636719	-208.292175	816.555054	1394.539062	-41.526985	969.983826	1307.989380	-37.617405	975.793762	1026.653442	228.364746	879.923462	1034.996094	-310.908051	1136.044617	883.264587	238.153778	995.240326	850.430817	-242.430519	980.764343	963.898254	141.529297	1016.496765	954.032654	-148.823730	780.746826	947.000610	41.944805	802.788818	935.657043	-101.724251	791.767822	941.328827	-29.889723	776.378479	1110.532593	-45.106663	1037.926270	1075.276489	-36.084164	914.658752	568.271606	172.676071	899.947815	445.683929	106.788506	836.161255	269.363312	148.736710	783.299255	74.241051	81.240685	736.729614	60.844685	30.857512	917.203186	42.855217	69.729378	1085.081299	600.733765	-207.094788	1098.382324	483.263153	-142.671524	1112.040405	276.967499	-192.108597	1119.453003	74.489449	-128.584824	1074.903564	49.377609	-75.270775	1255.669678	64.046272	-114.800461
376	3.75000000	900.582703	1357.638062	112.164459	900.881470	1362.713623	-209.323227	821.658203	1393.622070	-42.393913	975.276062	1307.349243	-38.733604	982.564880	1025.650757	226.439957	884.889404	1033.959839	-311.759186	1142.636658	882.049377	235.793381	1000.111755	849.154266	-244.530586	987.476257	962.875977	140.206009	1023.038208	953.583008	-150.033218	787.278320	945.578369	40.941494	809.250671	934.741272	-102.809616	798.264496	940.159821	-30.934061	782.232849	1109.406372	-45.956100	1044.031128	1074.843872	-37.192066	920.128296	567.387878	171.561417	904.233887	444.927490	105.961304	838.274536	269.546112	148.208893	783.668823	74.568687	81.203552	737.142639	61.438816	30.784163	917.417236	42.658810	69.958008	1090.327026	599.463867	-207.226974	1103.399170	482.630005	-143.090942	1115.838989	276.004639	-191.781357	1121.113403	73.611023	-128.328674	1075.816895	49.360413	-75.259033	1257.142578	60.652626	-113.551033
377	3.76000000	906.002686	1356.862183	111.246613	905.721802	1361.858765	-210.366272	826.839355	1392.799316	-43.272125	980.625122	1306.777832	-39.898018	989.201660	1024.676270	224.485855	890.005615	1032.992798	-312.605591	1148.991333	880.738647	233.419815	1005.273010	847.962006	-246.660507	994.272522	961.688416	138.712952	1029.551514	953.274536	-151.349258	793.804504	944.222656	40.036747	815.566040	934.013062	-103.876495	804.685272	939.117859	-31.919874	788.054260	1108.425659	-46.760452	1050.141357	1074.459351	-38.358009	925.918274	566.407959	170.322052	908.968323	444.069458	104.978943	840.792297	269.682312	147.530151	784.066345	74.972336	81.075279	737.604492	62.143353	30.605867	917.627686	42.497173	70.117859	1095.691406	598.703369	-207.380692	1108.720337	482.447357	-143.615356	1120.427734	275.552612	-191.573532	1122.921387	73.024734	-128.250412	1076.824707	49.688290	-75.414825	1258.734741	57.536480	-112.484093
